<!-- Created with Inkscape (http://www.inkscape.org/) -->
<svg xmlns:rdf="http://www.w3.org/1999/02/22-rdf-syntax-ns#" xmlns="http://www.w3.org/2000/svg" height="510" width="470" version="1.1" xmlns:cc="http://creativecommons.org/ns#" xmlns:dc="http://purl.org/dc/elements/1.1/">
 <title>Mascotte MozFr (communauté Mozilla francophone)</title>
 <defs></defs>
 <metadata>
  <rdf:RDF>
   <cc:Work rdf:about="">
    <dc:format>image/svg+xml</dc:format>
    <dc:type rdf:resource="http://purl.org/dc/dcmitype/StillImage"/>
    <dc:title>Mascotte MozFr (communauté Mozilla francophone)</dc:title>
    <dc:date>20 Juin 2013</dc:date>
    <dc:creator>
     <cc:Agent>
      <dc:title>Pandark</dc:title>
     </cc:Agent>
    </dc:creator>
    <dc:contributor>
     <cc:Agent>
      <dc:title>Mack</dc:title>
     </cc:Agent>
    </dc:contributor>
    <dc:publisher>
     <cc:Agent>
      <dc:title>MozFr</dc:title>
     </cc:Agent>
    </dc:publisher>
    <dc:language>fr</dc:language>
    <dc:subject>
     <rdf:Bag>
      <rdf:li>MozFr</rdf:li>
      <rdf:li>Mozilla</rdf:li>
      <rdf:li>francophone</rdf:li>
      <rdf:li>francophonie</rdf:li>
     </rdf:Bag>
    </dc:subject>
    <dc:description>Mascotte crée par Mack et vectoriellisée par Pandark</dc:description>
    <cc:license rdf:resource="http://creativecommons.org/licenses/by-sa/3.0/"/>
   </cc:Work>
   <cc:License rdf:about="http://creativecommons.org/licenses/by-sa/3.0/">
    <cc:permits rdf:resource="http://creativecommons.org/ns#Reproduction"/>
    <cc:permits rdf:resource="http://creativecommons.org/ns#Distribution"/>
    <cc:requires rdf:resource="http://creativecommons.org/ns#Notice"/>
    <cc:requires rdf:resource="http://creativecommons.org/ns#Attribution"/>
    <cc:permits rdf:resource="http://creativecommons.org/ns#DerivativeWorks"/>
    <cc:requires rdf:resource="http://creativecommons.org/ns#ShareAlike"/>
   </cc:License>
  </rdf:RDF>
 </metadata>
 <g transform="translate(-137.0448,-271.18176)">
  <path d="m382.9,776.34c-7.975-0.42446-15.85-1.0672-17.5-1.4284-1.65-0.36117-5.25-1.1112-8-1.6668-12.212-2.4671-22.377-5.1977-35.206-9.4571-13.703-4.5494-18.051-6.5764-27.963-13.037-2.8432-1.8531-5.564-3.3692-6.0462-3.3692s-4.3982-2.7-8.7021-6-8.1401-6-8.5249-6c-0.3847,0-2.9176-2.0737-5.6285-4.6083-17.279-16.155-17.943-17.121-17.136-24.939,0.5672-5.495,3.4263-11.776,9.083-19.953,2.6738-3.8651,3.1531-5.1726,2.1117-5.7605-0.741-0.41827-2.3913-0.32643-3.6673,0.20408s-6.3701,1.9276-11.32,3.1048c-4.95,1.1771-12.582,3.7407-16.96,5.6968-4.5057,2.0132-10.798,3.9287-14.5,4.4142-16.601,2.177-16.712,2.1759-23.508-0.2231-3.5927-1.2683-6.5323-2.6668-6.5323-3.1077,0-0.44091-1.4625-1.4177-3.25-2.1706s-7.2056-4.3589-12.04-8.0134c-4.8347-3.6545-9.5301-6.6445-10.434-6.6445-3.4179,0-10.075-4.0646-10.693-6.5292-0.3376-1.345-1.7317-3.178-3.0979-4.0732-1.3663-0.89521-2.4842-2.3102-2.4842-3.1443,0-1.2083,0.864-1.3991,4.25-0.93844,2.4035,0.327,6.4224-0.0177,9.25-0.79337,2.75-0.75437,7.9904-1.6611,11.645-2.0149,7.3769-0.71416,10.858-3.1018,16.184-11.1,3.9698-5.9616,17.308-18.426,25.979-24.277,16.125-10.881,33.448-17.675,44.442-17.429,6.2137,0.13887,6.3108-0.17264,2.8138-9.0298-5.8908-14.92-6.8277-18.866-6.6571-28.039,0.091-4.8998,0.7452-10.046,1.4615-11.5,0.7132-1.4472,2.0811-6.4562,3.0398-11.131,2.4742-12.066,3.7087-15.893,6.4111-19.875,2.003-2.9516,2.3976-4.8417,2.5183-12.062,0.079-4.7094-0.2463-10.812-0.7222-13.562-0.9304-5.3764-8.8732-22.639-11.37-24.711-0.8346-0.6926-2.5976-2.9705-3.918-5.0621-1.3203-2.0915-3.6216-4.333-5.114-4.9811-5.433-2.3592-15.187-9.088-15.752-10.866-0.3184-1.0032-2.4025-3.3849-4.6314-5.2928-4.475-3.8305-12.701-17.037-15.937-25.587-1.1449-3.025-2.3768-8.3408-2.7376-11.813l-0.6561-6.313-2.2081,2.063c-2.3748,2.2186-0.66802-0.77174-1.5383-2.18-0.7485-1.2111-1.8129-8.9608-0.53868-10.507,0.7495-0.90962,0.5882-1.25-0.5924-1.25-4.1542,0-0.96-3.6783,19.878-22.89,2.75-2.5354,7.3517-6.3816,10.226-8.547l5.2259-3.9372-2.3886-3.1316c-2.9181-3.8259-4.9346-10.887-4.1827-14.647,0.525-2.6248,0.3902-2.7512-2.3488-2.2034-2.8197,0.56395-5.165,3.452-5.4688-0.78125-0.2631-3.6673,2.9485-12.664,1.0304-12.936-2.1656-0.30723-8.4777,3.9866-5.3075-1.3107,4.7021-7.857,6.3308-18.607,11.846-24.527,1.2272-1.3172,2.3491-3.5,2.4931-4.8506,0.3668-3.4404,2.745-5.7329,7.3912-7.1249,2.1911-0.65648,3.9838-1.824,3.9838-2.5944,0-0.77046,0.339-1.6103,0.7532-1.8663,1.1706-0.72343,14.881,4.047,23.747,8.2622,4.4,2.0921,13.175,5.4933,19.5,7.5582,12.932,4.2219,15.985,5.6108,21.011,9.5584,3.2242,2.5325,4.3253,2.78,13.5,3.0352,11.166,0.31051,26.042,0.60335,26.927-0.8288,0.3197-0.51726,3.9488-5.0677,4.0676-8.0595,0.1734-4.3686-5.3535-5.7271-3.194-7.9811,1.4789-1.5436,2.6889-3.5197,2.6889-4.3911,0-3.0624,3.5701-5.8247,10.731-8.3032,4.1714-1.4438,9.4697-2.5028,12.522-2.5028,6.6938,0,18.193,3.1486,21.058,5.7655,1.2043,1.1003,3.5395,2.6864,5.1895,3.5246,3.5748,1.8161,11.5,8.9841,11.5,10.401,0,0.54924,0.9,1.8131,2,2.8086,1.1,0.99549,2,2.4032,2,3.1282,0,0.72504,0.8743,3.2428,1.9428,5.595,1.0686,2.3522,3.1454,6.946,4.6153,10.209,2.8886,6.4114,6.4076,21.697,6.4288,27.925,0.011,3.2845,0.2729,3.7478,1.7631,3.1214,0.9625-0.40457,2.8274-0.96757,4.1442-1.2511,2.1434-0.46154,2.3403-0.23429,1.8808,2.1698-0.4411,2.3072-0.039,2.8836,2.8558,4.0931,4.0741,1.7022,4.3067,3.917,0.8353,7.9534-1.5307,1.7799-2.6296,1.9679-2.2388,2.909,1.8283,4.4038-0.16086,3.9074-2.8861,3.9074-1.4753,0-1.3056,2.2942-2.3237,1.7494-1.72-0.92051-1.7796-0.72577-0.8411,2.75,0.5555,2.0574,2.0214,4.8657,3.2577,6.2407,1.2362,1.375,3.1894,4.075,4.3405,6s3.1326,4.6116,4.4034,5.9703c3.187,3.4075,6.5926,8.5455,8.1817,12.344,0.733,1.7522,4.9378,3.3536,2.997,3.8297-1.808,0.44358-2.3524,1.6025-1.2458,4.0555,0.22618,0.50134,2.8891,4.4757,2.8891,5.3007s0.45,1.5,1,1.5c2.1075,0,0.8726,4.0357-1.75,5.7191-3.5035,2.2489-3.322,2.1133-12.5,9.3405-4.2625,3.3565-7.75,6.5162-7.75,7.0216,0,0.50535,2.7,0.91883,6,0.91883,4.6667,0,6,0.33333,6,1.5,0,0.83333-0.8888,1.5-2,1.5-3.3859,0-2.2254,1.9165,2.5719,4.2472,3.8536,1.8723,4.5006,2.5934,4.1188,4.5908-0.3554,1.8592,0.2582,2.7893,2.8484,4.3175,1.8391,1.0851,3.7768,3.3116,4.3747,5.027,1.2169,3.4907,11.398,16.339,13.624,17.194,0.8043,0.3086,1.4622,1.1928,1.4622,1.9648,0,0.77202,2.2385,3.5986,4.9744,6.2814,2.7358,2.6828,4.9858,5.3735,5,5.9794,0.014,0.60592,1.3756,2.5143,3.0256,4.2409s3,3.661,3,4.2987c0,0.63769,3.3488,6.1543,7.4416,12.259,8.4404,12.589,18.287,32.478,21.586,43.6,1.2235,4.125,2.8249,9.075,3.5587,11,0.7337,1.925,1.6327,6.65,1.9976,10.5,0.365,3.85,1.0345,7.714,1.4878,8.5867,0.4533,0.87269,5.0101,3.2702,10.126,5.3277,8.8015,3.5396,12.08,5.1148,24.909,11.966,4.9607,2.6493,15.778,10.19,25.251,17.601,2.122,1.6602,4.1847,3.0186,4.5838,3.0186s2.3672,2.3834,4.3735,5.2966c5.0797,7.3756,6.7974,17.88,4.3583,26.653-0.9206,3.3112-1.6738,6.872-1.6738,7.9129,0,1.041-0.6021,2.3924-1.338,3.0031-0.7359,0.61077-2.1242,3.9284-3.0851,7.3724-1.9976,7.1601-8.2455,20.762-9.5368,20.762-0.9593,0-10.04,12.376-10.04,13.683,0,0.45378-3.4334,3.7482-7.6299,7.3208-4.1965,3.5727-8.5526,7.5082-9.6803,8.7458-1.1278,1.2375-2.8534,2.25-3.8349,2.25s-2.2633,0.89469-2.8485,1.9882c-0.5853,1.0935-2.2825,2.294-3.7717,2.6678-1.4892,0.37377-6.7637,2.5473-11.721,4.8301-4.9574,2.2828-12.838,5.6686-17.514,7.5241-4.675,1.8554-9.85,4.1855-11.5,5.178-1.65,0.99242-3.7471,1.8061-4.6603,1.8081s-6.5382,2.1839-12.5,4.8486c-14.814,6.621-30.702,11.744-43.593,14.057-3.1644,0.56762-6.6033,1.4868-7.642,2.0427-1.0386,0.55587-8.3495,1.2122-16.246,1.4584-7.897,0.24626-15.933,0.64573-17.858,0.88771s-10.025,0.0927-18-0.33178z" fill="#553125"/>
  <path d="m261.88,525.17c-2.992,6.3188-5.4156,13.432-7.0299,21.094-3.8765,18.399-2.2242,35.729,3.4723,47.397,0.72056,3.1028,1.0836,6.577,2.7251,9.9546,1.1941,2.4569,1.953,1.3896,2.3523-0.59512,0.39151-1.946-1.2881-4.1256-2.2119-6.138-5.5474-12.083-7.0904-30.182-5.442-37.216,2.9811-12.721,8.4601-19.37,15.328-40.331,0.78933-2.409-3.3587-15.249-5.6055-11.326-1.5522,2.71-2.5796,15.106-3.5884,17.161z" fill="#613b2e"/>
  <path d="m479.99,598.45c-6.9636-0.62272-14.418,0.0831-22.224,0.6971-18.604,1.4634-31.737,4.2564-42.821,9.715-6.9822,3.4386-16.365,6.4752-23.7,11.81-2.13,1.2399-4.6243,1.872-6.3379,3.3241-16.433,17.818,11.84,1.8018,20.895-4.7416,12.417-7.2887,32.673-13.762,40.429-15.143,13.026-2.3193,19.252-2.7793,37.236,0.55456,25.626,4.7504,30.336,29.423,30.187,38.166-0.0481,2.8133,1.5307,1.0604,3.383-0.33592,3.4407-3.2115-0.95009-16.298-4.7628-24.436-4.9154-10.491-17.393-18.547-32.284-19.611z" fill="#613b2e"/>
  <path d="m258.33,606.92c-6.9824,0.3556-14.396,1.5881-21.909,3.793-18.042,5.2949-32.525,14.954-40.106,25.495-6.0604,5.3293-11.661,13.496-18.63,16.605-1.936,1.5252-4.3177,2.4992-5.8118,4.1764-8.4333,3.177-30.524,4.6013-21.71,7.4796,14.097,0.7849,28.581,1.4942,46.059-21.627,8.0178-10.606,22.928-18.895,28.601-22.06,14.168-7.9058,19.847-4.9667,48.158-12.747,4.1332-1.1358-9.0522-1.3204-14.651-1.1143z" fill="#613b2e"/>
  <path d="m375.01,276.58c-3.6067,0.0632-7.0385,0.47082-9.7188,1.25-6.1676,1.793-11.5,6.2458-11.5,9.5625,0,0.98299-0.71272,2.0489-1.5625,2.375-0.84984,0.32611-2.2349,2.2067-3.0625,4.1875-1.2414,2.9712-1.2599,3.895-0.1875,5.2188,0.97264,1.2006,0.99781,1.4057,0.0625,0.84375-1.5021-0.90242-1.7731,2.4769-0.3125,3.9375,0.59072,0.59074,0.59924,1.518,0.0312,2.4375-0.74379,1.2041-4.1826,1.5605-17.938,1.8438l-17.062,0.34375-3.5312-3.0938c-4.8015-4.2158-13.76-6.1426-25.145-9.8162-10.727-3.4615-19.273-6.7656-26.281-10.219-4.2657-2.1019-5.1162-2.2146-8-1.0625-1.7748,0.709-4.9866-0.14502-8.0116,0.72243-3.025,0.86746-6.4,2.3602-7.5,3.3125-1.1,0.95225-3.9361,2.6979-6.2812,3.875-3.5169,1.7653-4.0424,2.3732-3,3.5,0.93275,1.0082,1.8052,1.1032,3.2812,0.34375,3.211-1.652,3.211-2.0681,0-1.4062-2.9331,0.60455-2.9219,0.56233,0.5-1.125,1.925-0.94921,3.725-1.9813,4-2.3125,0.275-0.33117,1.5961-1.1989,2.9375-1.9062l2.4375-1.2812-2.4375,3c-1.3414,1.6437-3.04,2.7612-3.75,2.5-0.71-0.26125-1.16-0.031-1,0.5,0.15999,0.53098-1.1248,3.176-2.8438,5.875-4.7206,7.4119-6.3901,11.132-5.7812,12.719,0.30271,0.78887-0.11506,1.6651-0.90625,1.9688-0.91953,0.35285-1.4631,2.0771-1.5,4.75-0.0565,4.0911,0.021,4.1514,2.9688,3.7188,2.69-0.39481,2.9456-0.20763,2.3125,1.6562-0.39001,1.1482-0.93581,4.4562-1.1875,7.3438-0.43888,5.035-0.36012,5.25,2,5.25,2.1079,0,2.5482,0.56906,3,3.9375,0.2901,2.1629,1.6696,6.3951,3.0625,9.4375l2.5312,5.5312-2.1875,2c-1.198,1.0993-5.8168,4.9104-10.281,8.4688-4.4644,3.5584-8.3879,7.2004-8.7188,8.0625-0.33083,0.86213-1.2442,1.5625-2.0312,1.5625-1.8354,0-11.206,10.201-11.938,13-12.438,11.16-11.534,11.741-3.89,11.957-1.6231,8.3666,4.2425,13.114,7.39,8.0741,1.0995-1.7605,1.4691-1.4698,2.5312,3.25,4.1065,18.247,15.732,36.029,37.344,48.594,3.7016,2.1521,7.2583,5.3349,8.2812,6.5,1.023,1.1651,4.4375,3.7,7.5938,5.625,14.139,8.6232,25.691,18.524,24,20.562-0.77757,0.93692,0.15773,3.1838,3.5938,8.5938,2.5632,4.0357,5.833,8.5812,7.25,10.094,1.743,1.8604,2.3959,3.8633,7.4763,4.6201-1.6608-1.9344-2.2575-2.2557-2.2575-2.8701,0-0.5547,2.3805,0.3453,5.3125,2,5.0971,2.8766,8.6564,2.6761,13.577,2.6321-2.6828-1.5184-3.7905-1.9869-5.6392-3.9759-2.2426-2.4126-2.3727-2.8279-0.75-2.1875,7.4334,2.9337,9.7493,3.4296,16.125,3.4688,5.4393,0.0334,4.0327-0.0513,9.9688-1.9375-7.2662-2.5394-8.1333-4.446-11.344-6.6562l-3.75-2.5938,5.4375,0.6875c7.017,0.8848,22.15-1.0248,28.562-3.5938,7.6324-3.0575,19.126-8.8161,28-14.031,4.4-2.5857,11.239-5.5916,15.219-6.6875,3.9799-1.0959,7.6295-2.2563,8.125-2.5625,0.49547-0.30621,7.1083-0.28129,7.0329,0.66652-0.10868,1.366-8.8751,2.5429-5.388,2.6877,9.2122,0.38258,17.383,3.3581,12.918,3.4583-4.5488,0.10201-9.3358,0.41162,1.6562,3.75,2.3465,0.71266,2.3782,0.68425,0.1875,0.78125-1.5501,0.0687-3.2919,0.71588-3.2919,2.0938,0,1.1,1.659,2,2.4482,2s5.7899,1.2454,7.2821,1.8127c2.5975,0.98758-0.33491,0.56639-2.3133,1.656-2.7694,1.5253-4.0163,1.7513,3.9062,4.5,4.6634,1.6179,5.7011,0.78827,8.75-6.25,1.671-3.8574,2.3698-7.827,2.7188-15.219,0.25968-5.5,0.93463-10.575,1.5-11.281,1.5739-1.9668,12.777,10.416,19.688,21.781,11.89,19.554,14.881,26.461,16.375,37.75,1.0075,7.6126,1.8963,10.848,3.4062,12.5,1.1205,1.2258,2.7154,3.6027,3.5625,5.2812,1.654,3.2773,10,11.469,11.688,11.469,0.56229,0,1.0312,1.0767,1.0312,2.4062,0,1.9387,0.87794,2.7656,4.4375,4.125,3.9433,1.506,7.6698,2.4285,6.6363,4.0835-0.89211,1.4286-1.1374,2.644-0.19798,3.5835,1.7571,1.7571,3.0727,6.1804,1.1254,7.6042-1.7707,1.2948-5.833,3.8103-4.0325,2.6976,1.7772-1.0984,1.1035,0.63057-1.4688,3.6875-2.6546,3.1549-3.056,4.3536-1.6562,5.2188,0.47622,0.29433,0.64036,1.6744,0.375,3.0625-0.42414,2.2188-0.11379,2.5345,2.4062,2.5625,3.0142,0.0334,2.6746,0.58187-2.2188,3.5312-1.2987,0.78278-1.5473,1.5754-0.90625,3,0.4792,1.0649,0.8979,2.4473,0.9375,3.0625,0.0396,0.61523,1.7381,2.9293,3.75,5.1562,2.0119,2.227,4.4305,5.2148,5.375,6.6562,2.3141,3.5318,4.3872,12.799,4.4062,19.625,0.009,3.0708,0.32083,5.8833,0.6875,6.25,1.3197,1.3197,8.1118-0.33909,9.3125-2.2812,0.0412-0.0666,2.9052-0.51389,4.1875-1.2188,0.0414-1.5858,0.38643-3.1692,1.9375-5.6875,1.355-2.2,2.4828-4.9945,2.5-6.2188,0.0172-1.2242,0.90206-3.6992,2-5.5,1.098-1.8008,1.998-4.5069,2-6,0.002-1.6638,1.005-3.5994,2.5938-5,2.2684-1.8703,3.9779-4.9337,5.2812-6.75-3.3584-7.8984-20.682-7.4465-20.906-11.156-0.51598-8.549-5.1141-26.174-10.812-41.5-1.1247-3.025-2.361-6.4-2.75-7.5-1.4472-4.0918-9.2413-20.121-11.438-23.5-1.2512-1.925-5.7669-8.9-10.031-15.5-10.38-16.065-20.178-28.845-36.594-47.688-2.7178-3.1196-4.9375-6.6127-4.9375-7.7812,0-1.3046-1.1525-2.8014-2.9688-3.8438-2.3596-1.3541-2.8481-2.1461-2.375-4.0312,0.6675-2.6596-0.88047-4.1322-4.4375-4.1562-2.1488-0.0145-2.1906-0.14509-0.75-2.3438,1.4969-2.2845,8.8765-10.323,15.281-14.105,3.8924-2.2986-2.5355-6.2421-5.822-11.991-1.3684-2.3936,4.072-0.85527,4.072-2.1851,0-2.2587-1.7744-5.4451-7.25-13-1.2395-1.7102-3.1571-4.4102-4.25-6s-6.5626-5.4992-7.2812-6.25c-1.2674-1.3241-6.7543-14.683-6.7543-15.748,0-0.29069,5.3355,3.623,7.5355,3.623,4.2284,0,3.9352-0.82456,1.9706-4.4956-0.74078-1.3842,0.39885-3.6378,2.2955-5.4196,1.3537-1.2718,2.7339-2.4388,2.7339-3.6786,0-2.1683-4.4921-4.214-6.0276-4.5224-2.8341-0.56908-0.77469-4.9906,1.0133-6.2704,2.95-2.1113-0.39543-2.1686-4.4858-0.61351-3.5163,1.3369-4.891,0.58282-5.7955-6.6562-1.5638-12.516-8.0505-34.124-12.767-40.188-7.0092-9.011-17.157-17.044-25.938-20.531-4.2537-1.6895-10.77-2.5428-16.781-2.4375z" fill="#ac5d32"/>
  <path d="m403.78,359.88c-0.68469-0.825-1.7523-1.5004-2.3724-1.5008-0.62016-0.00043-3.9027-1.3137-7.2946-2.9183-5.3856-2.5478-6.4465-3.5298-8.3726-7.7492-1.43-3.1328-4.5091-6.9376-4.8451-12.125-0.41404-6.3915-0.90591-8.2724-2.4463-9.355-1.3722-0.96436-1.8803-2.4057-1.7623-5,0.24609-5.4106-0.56526-6.3158-2.6607-4.4195-1.0591,0.95846-3.5421,2.3694-4.5455,2.1631-1.4826-0.30479-0.79956-2.1572-0.57153-5.6706,0.15433-2.3778,0.66948-5.45,0.0645-6.179-0.80061-0.96467-1.1499-2.4231-0.33795-3.9403,1.5655-2.9251,2.0924-3.6897-2.2568-3.6897-2.9719,0-3.6638,1.4807-5.3428,3.7517-1.5893,2.1496-1.8343,3.1538-0.97825,4.0098,0.85602,0.85602,0.72163,1.8537-0.53662,3.9837-1.4714,2.4908-1.5012,3.0761-0.24161,4.7402,0.79036,1.0442,1.4513,3.5066,1.4688,5.4721,0.0292,3.2833,0.33424,3.6489,3.7542,4.5,3.3816,0.84154,3.8015,1.3282,4.5861,5.3141,1.1186,5.6832,0.11594,6.2651-7.6787,4.4563-10.2-2.367-21.219-12.826-17.31-17.145,0.92652-1.0238,1.3938-2.1522,1.0384-2.5076-0.35541-0.35541,0.12961-3.2439,1.0778-6.4188,2.6081-8.733-0.87672-4.6865,1.3258-7.879l2.0124-2.917-3.1562,1.8644c-1.736,1.0254-3.1982,0.6078-3.5822,0.27792-3.1299-2.6886,8.2826-13.309,5.9471-12.308-5.7491,2.4654-8.0686-1.5184,5.3994-6.1862,2.6122-0.90533,6.582-2.7515,8.6434-2.7562,1.4984-0.003,4.3883-0.17839,5.9636-1,5.5513-2.8952,21.931,0.1711,27.329,4.3164,3.6406,2.7954,8.948,10.551,10.304,15.058,0.70402,2.3393,1.7718,11.792,2.3727,21.005,1.2222,18.737,2.6093,28.444,4.6378,32.452,1.9508,3.8553,1.7118,7.5444-0.56787,8.7645-2.8238,1.5112-7.6303,1.2648-9.0657-0.46482z" fill="#f7d2b5"/>
  <path d="m354.69,316.8c7.1883-1.768,3.6654,4.7373,2.9973,10.862-0.23809,10.36,2.4438,2.9727,5.7146,4.4007,0.88004,0.53476,1.1653,1.7734,0.0108,4.3267,8.3426,0.46429,11.143,3.0799,15.944,6.7333,3.994-1.7525,0.10436-8.7509-0.27489-11.458-0.0236-1.7489-1.0357-2.7958-2.5079-3.3701-1.3101-1.4937-0.80347-8.6496-1.0407-10.477-1.5327-1.5124-4.3277,4.1032-6.2262,3.2797-2.3578-0.79361,1.361-8.6842,0.96618-10.804-0.35243-3.1184-4.1042-0.0631-3.4131-3.1737,0.7471-1.9356,1.2797-3.3549,1.4075-5.5233,1.1867-2.9016-0.94734-3.7339-3.7812-4.7679-3.7379-1.364-12.194,1.2828-8.9394,3.0081,1.2296,0.65174,2.5451,1.5236,3.2597,2.2807,1.0985,1.5197-0.4669,1.8482-1.5282,2.7329-4.8268,4.4239-5.8659,12.757-2.588,11.95z" fill="#dca98c"/>
  <path d="m278.78,601.32c0-8.1532,1.7534-20.294,3.1614-21.889,0.46126-0.5225,0.83865-1.918,0.83865-3.1011s1.125-4.2669,2.5-6.8529,2.51-5.4655,2.5222-6.3989,0.8874-2.8221,1.9448-4.1971l1.9226-2.5,21.305,0.5c17.506,0.41083,18.649,0.12187,26.228,2.8067,4.3577,1.5437,9.2297,3.9062,10.827,5.25,1.597,1.3438,3.3076,2.4433,3.8013,2.4433,1.0883,0,14.345,11.318,18.156,15.5,3.5127,3.8552,6.1556,11.572,5.2991,15.471-0.35933,1.636-2.0048,4.1118-3.6565,5.5016-2.6232,2.2073-3.9448,2.527-10.445,2.527-8.0218,0-19.321-2.585-28.405-6.4984-11.938-5.143-30.653-7.5972-42.465-5.4074-4.5329,0.84032-5.0502,1.2242-5.9484,4.4131-0.54105,1.921-1.5315,3.9427-2.201,4.4927-0.66948,0.55-1.3729,1.8948-1.5631,2.9885-0.19022,1.0937-1.1282,2.1392-2.0844,2.3233-1.53,0.29464-1.7385-0.58991-1.7385-7.3732z" fill="#613b2e"/>
  <path d="m414.12,562.94c-1.5625-1.9583-3.3428-3.5606-3.9561-3.5606-0.61333-0.00002-2.2593-0.90003-3.6577-2-1.7042-1.3406-4.0568-2-7.1349-2l-4.5923-0.00001v-3.8776c0-2.1378,0.63997-4.4087,1.4264-5.0614,1.1968-0.99323,1.2208-1.7775,0.14959-4.8718-1.0591-3.0592-1.8565-3.7844-4.6764-4.2535-4.6768-0.77795-7.8996-2.6835-7.8996-4.671,0-1.2949-0.26667-1.3982-1.2-0.46482-1.6828,1.6828-5.3635,1.4936-7.2286-0.37143-2.2483-2.2483-2.1075-6.6192,0.42857-6.9286,4.9842-0.60808-7.3241-4.8864-13.5-6.5288,6.0606-2.9467,21.659,3.081,37.5,2.3769,16.079-0.71462,22.384-4.4325,30.55-10.931,3.745-2.9803,10.487-6.417,12.588-6.417,2.2079,0,7.2734,17.133,8.811,29.802,1.411,11.626,0.0969,17.213-5.312,22.587-2.2756,2.261-5.9374,4.7108-8.1373,5.4439-2.2,0.73311-5.3499,1.92-6.9999,2.6374-1.65,0.71747-5.5466,1.6074-8.659,1.9777-5.5981,0.66592-5.6896,0.63481-8.5-2.8874z" fill="#613b2e"/>
  <path d="m413.98,360.18c-0.66-0.66-1.2-2.145-1.2-3.3s-0.38882-2.5275-0.86404-3.05c-1.9307-2.1228-3.3416-11.904-4.1924-29.064-0.93959-18.951-2.5996-28.048-5.9484-32.596-1.9603-2.6622-2.7184-6.7941-1.2452-6.7868,2.0714,0.0103,7.4745,4.3783,9.8429,7.9572,1.4701,2.2215,2.9791,4.039,3.3534,4.039,0.37426,0,1.2984,1.575,2.0538,3.5,0.75531,1.925,1.6696,3.5,2.0316,3.5,2.4706,0,12.449,42.346,11.315,48.017-0.74494,3.7247-3.8963,6.5323-8.8466,7.8816-4.963,1.3528-4.8469,1.3546-6.3-0.0986z" fill="#512921"/>
  <path d="m245.78,281.38c-1.2819-0.82843-1.2456-0.9716,0.25-0.98469,0.9625-0.008,1.75,0.43469,1.75,0.98469,0,1.2196-0.11279,1.2196-2,0z" fill="#ac5d32"/>
  <path d="m280.7,313.67c-0.56725-1.492-4.5255-4.1485-7.3157-6.7715-3.8967-3.6631-10.295-6.5601-14.353-9.8589-5.0008-4.137-16.911-13.907-13.876-13.907,0.75572,0,18.343,4.3343,20.75,5.6595,2.4068,1.3252,10.676,4.5408,18.376,7.1457,17.788,6.0178,25.5,9.7858,25.5,12.459,0,1.3512-0.67175,1.9856-2.1025,1.9856-1.1564,0-6.132,1.35-11.057,3-11.471,3.843-14.548,3.8986-15.921,0.28728z" fill="#512921"/>
  <path d="m523.04,585.37c-0.86651-2.2059-1.7181-3.8681-1.8924-3.6938-0.63434,0.63434,1.7473,7.7045,2.5954,7.7045,0.4799,0,0.16359-1.8048-0.70292-4.0108z" fill="#964a2a"/>
  <path d="m384.78,478.38c0-0.55-0.19844-1-0.44098-1s-0.7191,0.45-1.059,1c-0.33992,0.55-0.14148,1,0.44098,1s1.059-0.45,1.059-1z" fill="#964a2a"/>
  <path d="m415.03,477.72c-0.6875-0.27741-1.8125-0.27741-2.5,0s-0.125,0.50439,1.25,0.50439,1.9375-0.22698,1.25-0.50439z" fill="#964a2a"/>
  <path d="m388.36,455.51c-0.80882-4.4952,4.8229-6.3833,7.807-8.6354,4.8696-3.3285,9.3722-7.208,13.65-11.254,2.0158-2.9987,2.9036-6.398,6.5552-7.9648,3.817-3.1586,2.5118-8.4605,4.676-12.284,1.5656-5.4493,0.85424-11.341-0.15791-16.841-2.5106-7.5299-6.5681-14.601-11.601-20.737-2.3803-2.6716-6.9072-5.8277-4.9144-9.896,3.3857-2.6478,6.1088-6.4756,10.053-8.3033,4.8864-1.2535,10-1.9987,15.048-1.8376,5.4286,0.62883-2.3386,6.1633-3.3444,9.0798,3.1798,3.1639,1.5728,9.004,3.7568,12.922,2.9765,2.6254,1.9627,7.1924,4.8098,9.9161,2.3773,4.0125,8.6144,8.418,11.774,11.891,2.6523,2.4449,3.0693,7.1198-0.71007,8.6656-2.1943,0.75631-0.83528,1.7756,0.40335,2.786,2.0963,2.0908,2.6612,2.7529,3.1972,5.821-1.7153,4.3767-8.2001,3.5117-11.149,6.1297,0.0826,4.0607-2.2412,6.9502-5.3106,9.179-14.318,7.1008-20.559,18.013-33.994,21.292-3.3849,0.44376-7.3587,1.4833-10.549,0.071z" fill="#964a2a"/>
  <path d="m232.18,351.77c-2.1067-2.5384-4.1218-8.4514-4.6266-13.576-0.41336-4.1962-0.74332-3.225-3.1196-3.5-2.2758-0.26334-6.7016,0.66022-6.9652-2.5151-0.16931-2.0392,0.48367-8.4892,1.1455-9.75,1.1691-2.2271,1.1471-2.2425-0.7709-0.54234-1.0858,0.9625-2.7848,1.75-3.7756,1.75-1.5437,0-1.7287-0.64437-1.2935-4.505,1.2684-3.8591,21.069-28.146,5.6054-19.729-1.8062,0.98312-4.6594,0.98901,3.0036-5.0888,0.93377-0.7406,1.4813-1.8812,2.3352-2.7486,0.99659-1.0123,1.9127-2.3288,3.3248-2.7949,15.57-5.1394,2.9376-8.53,10.549-8.2582,2.2746,0,5.7644,2.1687,7.8858,3.0821,3.794,1.6337,5.205,7.4876,18.404,15.13,15.406,8.9208,18.693,15.876,17.66,18.567-0.33029,0.86073-4.322,1.8389-8.8026,5.0348-4.4806,3.196-8.6869,6.1996-9.3472,6.6748-1.783,1.2831-13.456,0.003-15.68-2.2212-3.8223-4.3541-2.3214-1.8637-5.2425-4.1605-1.167,0-3.2062-1.7175-2.6325-6.75,0.49298-4.3243-0.47516-6.4484-1.0631-4.4996-1.5175,5.0304-4.1385,2.5511-3.0641-1.8279-0.16271-0.85087-0.48814-2.5526-0.48814-2.5526l-0.94191,2.2837c-1.6763,4.0642-0.0401,12.72,1.9342,14.695,1.1434,1.1434,1.3944,2.6167,0.93515,5.4889-0.60452,3.7805-0.49332,3.9822,2.9997,5.4416,2.3183,0.96865,3.6274,2.1839,3.6274,3.3674,0,1.0184,0.9,2.9959,2,4.3943,2.5765,3.2755,0.27461,1.7002-2.8389,5.4004-2.8676,3.408-8.721,6.1644-10.758,3.7106z" fill="#f7d2b5"/>
  <path d="m290.78,471.75c-3.2294-0.62091-8.9507-2.281-11.5-3.3369-1.1-0.4556-3.643-1.5492-5.6511-2.4303-2.0081-0.88108-4.1819-1.602-4.8305-1.602-1.4602,0-12.018-6.9327-12.018-7.8915,0-0.38335-1.8223-2.6512-4.0496-5.0398-2.2273-2.3885-4.9115-6.0324-5.965-8.0974-3.0418-5.9623-5.7656-18.604-6.4061-29.73-0.79431-13.8,1.1029-19.525,8.9661-27.056,3.8203-3.6592,6.2356-5.2301,7.752-5.0419,1.2114,0.15043,3.4441-0.54955,4.9615-1.5555,2.5324-1.6788,3.4356-1.7252,11-0.56544,4.5326,0.69496,10.118,1.8197,12.413,2.4994,4.1494,1.2292,7.8053-0.82766,6.4588-0.87767-2.1971-0.0816-3.2925-0.16256-0.46357-3.404,1.1692-1.3397,2.8902-4.8092,3.5259-6.6868,0.97762-2.8871,2.2122-8.9733,5.2962-10.716,0.86598-0.48945,0.4283,0.75722,0.0554,1.4583-1.5256,2.8684-0.57946,1.3352,2.8246-2.597,5.9387-6.8601,22.887-10.165,19.749-7.849-2.4131,1.7809,2.2829,1.2781,5.0038,1.2302,2.3295-0.0409,4.8301,1.3191,6.5062,2.384,4.8306,3.0688,1.6923,2.4457,0.37252,2.7334-0.58201,0.12687,1.8595,1.6692,2.8174,2.3351,2.9869,2.0764,1.6116,2.413-0.53473,2.6279-1.3674,0.13687,0.61113,1.1687,2.0772,3.0768,2.3967,3.1192,2.0061,8.7588,0.76625,6.8593-0.84763-1.2985-2.4114,0.58189-1.8643,2.0526,0.58423,1.5705-0.51597,4.1404-0.63292,4.3794-0.27336,0.55868,1.0936-0.2275,2.6211-0.71694,6.0575-1.8817,9.6546-2.4208,16.975,0.13359-3.8251-0.0444-6.5813,0.25294-7.6009,0.96478-1.791,1.2504-0.0193,0.86817,5.1061,1.3329,10.832,0.0661,13.636,5.7996,16.385,8.9674-5.5496-2.304-7.8911,0.51883-5.2831-0.003,1.6806-0.33639,9.2352,4.3944,11.008,7.9702-2.6841-1.6824-8.3414-5.0746-11.655-4.5212,3.6415,0.91011,10.152,4.4676,12.043,8.8529-3.0639-2.227-8.1467-3.663-10.256-3.2946,3.2213,1.011,7.1046,4.4402,7.8777,5.834,1.8966,3.4194,3.2796,12.163,2.3101,25.086-0.0905,1.2069-2.039-8.6038-3.9072-9.2289,0.4901,2.4278,3.6097,9.1741,0.85225,13.086-3.8377-7.9207-1.6446,0.39804-2.6052,3.648-0.88114-2.962-3.3175-5.9142-3.5839-3.2452-0.20388,2.0426,0.48813,3.6344-1.9569,9.0459-1.0175-7.8537,0.17806-5.6291-3.6718,2.6004-1.6464,3.6222-10.999,14.294-14.043,16.087-3.1693,1.8067-4.2042,1.9956-3.1981,0.91308,4.0689-4.3775,6.1109-6.8294,6.6628-8.3672-3.2474,3.1938-4.4967,4.7778-9.3983,8.479-2.1225,1.6027-10.647,4.8484-13.489,4.8484-2.9964,0-2.1017-3.4077,1.4281-5.4395,10.522-6.0564,18.214-15.837,20.707-26.33,1.0772-4.5337,1.028-5.7422-0.35238-8.6511-0.88248-1.8597-1.6045-3.8649-1.6045-4.456,0-0.59109-0.89832-2.5481-1.9963-4.3489-2.2734-3.7287-2.5704-6.4186-0.7749-7.0171,0.91712-0.3057,0.82495-1.0244-0.36334-2.8333-1.93-2.938-12.341-13.343-17.283-17.272-3.4871-2.7727-4.7952-6.7839-2.6457-8.1124,1.617-0.99937,4.0633-6.7299,4.0633-9.5185,0-5.8001-8.7223-9.5876-16.311-7.0829-4.129,1.3627-17.96,14.062-15.315,14.062,2.1191,0,9.3197,3.6063,9.784,4.9002,0.18824,0.52452,2.4394,1.774,5.0027,2.7767,3.5911,1.4048,6.0632,3.5439,10.774,9.3231,3.3626,4.125,5.9722,8.175,5.7992,9-0.17305,0.825,1.0833,4.2,2.792,7.5,5.3648,10.361,7.0998,22.58,3.3084,23.299-0.94603,0.17926-1.868-0.46512-2.134-1.4914-0.25757-0.9939-0.52052,0.78041-0.58432,3.9429s-0.566,5.75-1.116,5.75-1,1.1695-1,2.5989c0,6.1489-7.756,17.81-14.166,21.299-3.5234,1.9178-6.1106,2.4143-13.834,2.6552-5.225,0.16298-10.625,0.08-12-0.18435z" fill="#f7d2b5"/>
  <path d="m237.14,446.51c-1.5707-1.5778-4.1683-4.2778-5.7724-6-6.4294-6.2855-10.765-12.474-12.018-22.035-1.1198,2.3112-0.94402,3.1099-1.1002,8.7831-3.4195-4.7748-3.7605-11.046-3.0906-15.544-1.0428,0.32397-1.6814,0.69035-2.5398,3.4861-2.0269-6.6846-0.86698-13.734,2.3097-19.272-0.22485-0.14967-0.86184,0.70765-1.8529,2.4184-0.75172,1.2976-1.3275,2.9461-2.0785,4.9929-0.40686-2.9159-0.3013-3.1327,0.40391-7.0028,0.65682-3.6046,2.0399-7.4312,3.819-10.661-1.717,0.38197-2.2178,1.1906-4.3522,1.8193,1.535-1.9581,2.566-3.9029,10.416-8.8237,4.9762-2.825,10.788-5.9114,15.76-5.7759,1.5654,0.0427,2.3614-2.4356,2.7519-4.1524-3.3741,4.2638-4.2997-2.4144,0.12914-6.5705,1.7512-1.6433,1.7976-2.1759,5.1323-3.1195,2.4329-0.68845,0.76581-1.2475,0.35963-1.575-3.1363-2.5289,6.0085-3.802,8.1945-2.4806-0.35217-2.0058-2.6464-4.3982,1.6956-3.4075,2.9108,0.59898,7.182,3.2049,8.3402,4.5128,1.0851,1.3194,1.1732,1.2008-0.86314-3.024-2.3519-4.8793,3.4396-2.2402,7.0826,2.5358,6.4017,8.3926,7.3434,11.586,3.6674,17.274-3.7378,5.7839-7.7066,5.876-7.8053,0.18128-0.11124-6.4154-10.644-10.805-14.9-6.2103-2.6647,2.877-3.0011,8.0996-0.63328,9.831,2.5,1.828,1.4732,6.2296-1.6529,7.0856-1.2423,0.34019-3.1591,1.4025-4.2596,2.3606-2.3427,2.0396-8.4991,9.7502-8.4991,10.645,0,0.33812-1.35,2.4784-3,4.7561-2.878,3.973-3,4.5665-3,14.598,0,9.5198,0.26483,11.012,2.9547,16.648,1.6251,3.4051,4.5501,7.6429,6.5,9.4172,3.5658,3.2448,4.7444,7.1776,2.151,7.1776-0.76684,0-2.6793-1.2909-4.25-2.8687z" fill="#f7d2b5"/>
  <path d="m386.42,454.1c0-0.9032,2.956-2.7046,5.3985-5.5636,5.0491-5.91,10.893-16.156,13.855-21.219,3.0206-5.1639,1.0675-12.212,2.054-13.006,0.73919-0.5955,6.0238,7.1145,2.622-4.0274-3.4209-11.204-1.4133-13.34,0.85848-11.474,3.1275,2.5685,4.5075,2.5157,4.2304-0.0228l-3.6263-4.0795c-6.4185-7.2208-1.4416-6.0004,1.555-4.7999,1.8466,0.73981,2.2522,0.0161,0.58026-3.018-0.95053-1.7249-2.0559-5.2111-2.8465-6.1866-1.0927-1.3482-5.9463-5.5637-7.2965-9.0014,3.3482-1.254,16.962,10.382,22.423,27.875,0.91363,2.9268,1.4947,16.929-2.8329,8.3017-1.3904-2.7719,4.2315,13.059-2.487,7.7814-2.531,4.3286,2.1308,14.083-5.954,13.716-3.0303,0.1591-2.1017,3.1425-2.9242,6.2495-1.155,4.3627-3.1825,6.4656-15.425,13.63-2.8184,1.6495-6.6138,3.5801-7.1659,4.6116-1.2475,2.3309-3.0182,2.5052-3.0182,0.23328z" fill="#833c23"/>
  <path d="m305.27,753.29c-7.51-3.9473-12.956-7.2658-14.908-9.0851-1.0746-1.0012-2.4815-1.8203-3.1265-1.8203-0.64494,0-3.3471-2.025-6.0048-4.5s-5.0827-4.5098-5.3888-4.5218c-0.30612-0.012-5.2109-4.701-10.899-10.42l-13.171-10.752,0.46191-5.8299c0.49147-6.2029,3.3744-15.33,4.8423-15.33,0.4848,0,0.88146-0.49907,0.88146-1.109,0-0.60998,0.86282-2.0725,1.9174-3.25,9.8553-11.004,16.751-19.139,17.57-20.727,0.54292-1.0528,1.4518-1.9142,2.0197-1.9142,0.56793,0,4.7614-3.825,9.3189-8.5,4.5574-4.675,8.9361-8.5,9.7303-8.5,0.79419,0,1.444-0.4133,1.444-0.91844,0-1.3202,8.5125-6.1436,10.739-6.1345,3.5014,0.0143,12.376,19.095,18.693,40.318,4.3844,14.731,4.7173,26.868,1.0331,37.663-3.3127,9.7068-10.282,25.944-13.811,32.175-3.3969,5.999-5.0537,6.4599-11.341,3.1554z" fill="#ffd600"/>
  <path d="m379.78,775.7c-24.446-4.0017-69-17.205-69-20.448,0-0.5412,2.6687-6.246,5.9305-12.677,7.9741-15.723,13.331-30.943,13.828-39.293,0.68223-11.443-4.8535-29.954-15.271-51.064-2.8223-5.7191-4.5121-10.332-4.1402-11.301,1.9899-5.1857,20.899-7.8404,55.558-7.8,22.384,0.0261,22.408,0.0285,24.201,2.3952,3.1274,4.1272,8.7175,21.751,12.805,40.369,8.4287,38.394,8.2586,40.208-7.3549,78.455-9.8654,24.166-8.6911,22.651-16.557,21.363z" fill="#0194c7"/>
  <path d="m522.59,643.73c-1.3937-0.38576-2.4016-1.9328-2.4016-7.8972,0-8.4917-2.7029-15.351-7.5704-21.778-1.7696-2.3366-4.7457-4.3289-5.3172-5.2914-0.57147-0.96255-0.49379-2.5596-1.5237-4.283-1.5734-2.6328-1.8807-2.835-3.1941-5.2077,2.2775,0.56102,4.156,1.3133,5.4525,0.77194,1.0937-0.1972,2.4859-1.1056,2.6618-2.0187-4.171-0.6956-4.9419-0.64599-10.662-6.5168,3.495,1.7035,6.8127,1.9735,6.9384,0.892-2.2476-1.1149-5.1174-5.9838-6.2541-8.2091,2.4684,0.91303,5.0166,1.3208,8.5777,1.3608-1.536-2.5864-3.5752-2.7431-8.4028-8.8536,5.6615,2.8598,7.1555,3.2405,11.632,3.6313-2.4384-2.6562-5.4759-3.3709-8.9891-8.5807,2.7297,1.8187,4.1192,1.8734,8.4174,1.6967-1.8524-1.0607-5.701-2.8274-9.0598-5.3588,3.0052,0.61122,8.4448,0.65165,9.7782,0.65165-7.7423-0.90447-12.24-8.3717-16.138-11.358-2.0206-1.4111-4.9416-5.5059-7.1392-8.8835s-3.6278-7.0445-4.2585-7.0683c-0.67772-0.0256-1.6275-3.622-2.3223-8.7933-1.6323-12.149-3.3821-17.429-9.0298-27.25-2.6885-4.675-6.51-11.569-8.4923-15.32-3.8556-7.2953-17.455-22.45-19.186-21.38-0.55992,0.34605-1.3131,5.1319-1.6738,10.635-0.72283,11.03-3.5758,20.42-6.7146,22.099-2.5191,1.3482-1.4464,1.8865-3.5308,1.3831-10.202-2.4638-7.7227-4.507-3.7112-5.6362,1.2603-0.35477,0.72329-0.82003-1.9429-1.7852-10.902-1.492-6.7197-5.7747-1.8207-5.1609-7.0218-2.5582-13.642-4.0145-2.4873-4.653,1.6302-0.0962-0.42773-0.89201-2.9492-1.771-1.7501-0.61008-6.2172-1.3697-8.3352-1.3697-2.7562,0-4.8114-0.0741-3.3298-0.71856,3.6578-1.5909,11.804-2.1945-0.42979-2.9327-1.9971-0.12049-3.2256,1.1506-6.9224,2.1966-3.4551,0.97763-6.4105,1.5583-13.234,5.2295-9.9564,5.3565-26.491,14.738-34.422,16.609-4.3953,1.0366-12.17,3.2559-16.076,2.8982-2.7134-0.24844-9.4055,0.75934-13.546-0.47107,1.7013,2.9135,6.5818,5.9988,12.858,9.1825-14.428-2.2273-31.154-5.8618-37.663-12.027-1.5198-1.5198,5.6188,8.1419,8.5762,12.121-17.476-6.3279-19.912-22.077-25.766-28.042-7.6552-9.6378-13.034-14.234-18.213-15.956,0-3.4102,2.2008-3.6876,7.6488-0.964,13.728,5.1427,37.706,11.476,52.112,10.142-5.2359-1.3704-15.235-0.72131-21.985-4.4396,8.75,2.0625,20.773-0.5529,34.126,0.33521,16.071,1.0689,46.669,0.0729,52.518-1.7095,6.1567-1.876,7.5911-1.8785,7.5911-0.0129,0,1.2011,0.71276,1.084,3.75-0.61591,2.0625-1.1544,4.0806-2.6092,4.4847-3.2329,0.40408-0.62375,0.74158-0.73501,0.75-0.24725,0.017,0.98189,5.3956-3.8318,20.745-18.567l10.23-9.8202h6.0199c4.2826,0,5.9477,0.36074,5.7699,1.25-0.1375,0.6875-1.132,1.608-2.21,2.0455-1.6653,0.67585-1.1672,1.1749,3.3126,3.3188,4.2804,2.0485,5.2178,2.9408,4.9818,4.7418-0.18136,1.384,0.90308,3.521,2.883,5.6812,4.8743,5.3183,14.283,16.75,14.283,17.354,0,0.29619,0.92519,1.5669,2.056,2.8238,8.8525,9.8398,30.791,41.166,30.171,43.082-0.14172,0.43804,0.82522,2.238,2.1487,4,2.7105,3.6085,9.4487,16.734,9.9779,19.436,0.19043,0.97237,0.62054,2.4429,0.9558,3.2679,1.8733,4.6099,6.5997,20.074,7.1824,23.5,0.37419,2.2,1.5441,6.4664,2.5999,9.4809,1.4783,4.2209,3.7886,9.3028,4.6062,25.875,0.58394,11.836-0.70602,25.794-0.88046,29.644l-0.31715,7-3,0.15637c-1.65,0.086-3.7625-0.0547-4.6944-0.31261z" fill="#964a2a"/>
  <path d="m554.78,726.78c0-0.88153,1.5582-7.969,3.4627-15.75s3.8912-17.4,4.415-21.375c2.024-15.361-4.3657-28.058-19.762-39.271-3.3633-2.4492-6.1151-5.0265-6.1151-5.7274,0-0.70081-0.675-1.2742-1.5-1.2742-2.2725,0-1.8179-3.9672,0.97391-8.5,1.355-2.2,2.4777-5.0016,2.4949-6.2258s0.92953-3.6992,2.0275-5.5,1.998-4.4958,2-5.9889c0.002-1.6638,1.0073-3.5994,2.5961-5,1.4258-1.2569,4.0452-3.7478,5.821-5.5353s3.7954-3.25,4.488-3.25c1.176,0,15.511,7.3688,21.099,10.845,1.375,0.85555,6.2642,4.4551,10.865,7.9991,9.7897,7.541,16.136,16.219,16.134,22.061-0.002,5.6685-3.8834,24.657-6.551,32.052-6.3421,17.582-20.378,37.485-33.621,47.676-5.9319,4.5648-8.826,5.4711-8.826,2.7637z" fill="#0d7d41"/>
  <path d="m306.28,471.38c2-0.85943,2-0.85943,0-0.99721-1.1-0.0758,0.0931-0.70157,2.6514-1.3906,5.9973-1.6154,8.8419-3.53,13.1-8.8172,2.1457-2.6642,3.2742-4.5664,3.8659-6.6729,1.8534-5.3436,1.223-15.972,0.39505-18.178,1.865,2.1228,4.5487,10.444,3.9596,2.6653-0.21515-2.841-0.49853-3.7998-1.0315-6.5466-1.532-7.8956-11.779-18.136,1.7676-5.9346l3.8102,5.3713-0.5323-3.5c-0.94801-6.2334-7.7156-19.237-12.896-24.778-2.1774-2.798-4.3198-4.4954-5.5506-6.8167,2.1439,1.8324,4.2796,3.4549,7.005,6.1392,2.7253,2.6843,4.9551,4.3676,4.9551,3.7408,0-0.62691-1.1857-2.0725-2.6349-3.2124s-2.2536-2.0726-1.7876-2.0726c2.0533,0-9.3388-10.091-12.529-11.098-1.9517-0.61609-5.2721-2.4713-7.3788-4.1227l-3.8303-3.0025-5.2657,1.6563c-5.1633,1.6241-5.4132,1.6068-12.846-0.88836-7.6817-2.5787-16.113-3.3486-17.211-1.5718-0.33068,0.53505-2.3335,1.4393-4.4508,2.0094-3.6944,0.99479-10.591,6.8542-13.777,11.705-2.5278,3.8484-4.219,12.069-3.2082,15.594,0.50568,1.7632,0.9289,6.1338,0.9405,9.7124,0.0376,11.615,7.0112,27.056,15.954,35.324,4.5697,4.2255,5.8728,6.6821,3.5446,6.6821-0.71702,0-4.916-2.0314-9.3312-4.5143-9.5691-5.3813-19.765-15.795-23.815-24.324-4.4238-9.3154-4.3075-24.329,0.25819-33.356,2.3324-4.6117,11.286-14.723,15.517-17.523,3.4983-2.315,3.8255-2.8288,2.4451-3.8381-3.0703-2.2451-1.2963-13.463,2.4457-15.466,2.7111-1.4509,8.6571-1.1872,11.981,0.53146,3.4139,1.7654,4.98,4.2957,4.98,8.0464,0,2.2888,3.7872,4.8368,5.4234,5.207,1.9521,0.44168,7.198,1.6027,10.501,2.956,3.821,1.5656,10.201,0.74981,11.824-3.4839,0.63929-1.6674,2.8632-4.6095,4.4375-5.7117,7.4978-5.8482,12.997-8.0055,21.564-7.295,7.2392,0.60033,10.255,3.4557,10.238,9.6952-0.008,2.9849-0.84991,6.041-2.422,8.7905l-2.41,4.2148,3.6721,3.1426c10.141,8.6787,16.114,15.368,19.051,21.334,3.2503,6.6024,3.6246,7.7616,2.3707,7.3437-1.1526-0.3842-1.1251,1.4828,0.0627,4.25,1.6941,3.9468,1.3399,12.964-0.76271,19.415-2.1278,6.5292-10.675,16.711-17.391,20.716-2.0125,1.2003-5.0382,3.4692-6.7239,5.0421-1.6857,1.5728-4.6077,3.3021-6.4934,3.843-4.338,1.2441-17.341,1.2291-14.442-0.0167z" fill="#833c23"/>
  <path d="m319.51,365.78c-0.33229-0.33229-1.1948-0.36781-1.9167-0.0789-0.79773,0.31922-0.56078,0.55618,0.60417,0.60416,1.0542,0.0434,1.6448-0.19293,1.3125-0.52522z" fill="#833c23"/>
  <path d="m228.96,319.21c0.0327,3.655,2.2076,2.4441,3.6161,5.4467-0.525,3.278-0.60299,9.8436,4.6973,10.029,3.3603,0.11779,4.2052,5.0038,4.4893,7.5794,1.5857,5.738,6.4184,1.5824,9.2188-2.0938,1.8078-3.1581,8.2036-6.0363,6.125-10.031-4.0142-1.9922-8.9615-1.8542-12.219-5.4688-1.7198-1.6675-5.3617-1.9256-4.8545-5.4856,0.63649-3.6401-3.2973-3.3829-5.6962-7.7116,0.33695-8.7808-5.6547,4.3917-5.377,7.7355z" fill="#dca98c"/>
  <path d="m262.42,382.85c-1.1326,0.33754-3.2536,1.5385-4.868,2.9796-1.5735,1.4045-3.9138,4.5455-2.5377,3.9526,0.54778-0.23605,2.0996-2.1332,2.8708-2.9306,1.4554-1.7808,5.5655-3.7844,5.6891-3.9323,0.24216-0.28967-0.73149-0.19511-1.1542-0.0692z" fill="#000"/>
  <path d="m256.58,390.2c0.1761,0.0123,0.41241,0.01,0.65625,0-0.23167,0.009-0.48679,0.0115-0.65625,0z" fill="#F00"/>
  <path d="m264.16,403.25c0.52374,2.7102,0.10934,7.3882,0.97812,10.046,0.28589,2.3593-2.5726,3.1067-4.3848,2.5655-2.472,0.0899-4.7984-1.3665-7.6492-3.447,0.13539,2.5655,3.6337,3.714,4.9922,5.5032,1.844,1.7522,1.1682,4.4921,2.3056,6.6008,2.4799,4.3078,5.2742,8.7902,10.528,10.956-5.9176-5.8168-10.693-10.958-9.8739-17.078,2.8068-0.13008,4.1518-1.1528,5.5607-0.80276,6.9016,0.93952,13.536,4.0638,20.482,4.755,5.4495,0.55942,10.318,1.0008,15.623-0.66643,1.6214-0.46243,4.6074-2.0102,5.3054-2.9246-9.2275,4.3171-14.928,3.1091-21.462,1.752-5.6762-1.0988-11.545-1.9441-16.787-4.5112-2.23-0.92896-2.8693-3.214-3.1692-5.6036-0.65222-1.6105,0.0848-5.7558-0.31133-6.8954-0.34589-0.0746-1.7911-0.17307-2.1367-0.24888z" fill="#000"/>
  <path d="m260.81,402.6c-3.0843-1.0153-9.6105-7.2712-9.1864-9.7542,0.41122-2.4077,2.7065-3.5304,4.6545-3.876,1.1135,0.4198,6.4914-0.94654,12.536-0.0211,12.604,1.9295,15.8,4.4052,12.395,9.6015-1.4189,2.1655-9.4195,5.6031-13.208,5.4906-2.397-0.0711-4.794-0.43644-7.1911-1.4408-0.00002-0.00001,0-0.00005,0-0.00005z" fill="#000"/>
  <path d="m315.81,367.55c-0.60958,0.0233-1.2684,0.11863-1.9688,0.25-6.4352,1.2073-14.035,10.84-10.969,13.906,0.3666,0.36667,4.0791,0.6895,8.25,0.6875,5.8404-0.003,8.3264-0.47743,10.875-2.0312,2.924-1.7825,3.2731-2.4556,3-5.75-0.2575-3.1064-0.88855-4.0427-3.8438-5.625-1.9832-1.0618-3.515-1.5073-5.3438-1.4375z" fill="#000"/>
  <path d="m312.4,370.01c-2.3862,1.386-3.4381,2.0051-3.6581,3.7277-0.21495,1.6833,2.7289,1.1013,4.7474,1.1843,2.1493-0.29923,4.8887-6.1489-1.0894-4.912z" fill="#FFF"/>
  <path d="m251.6,374.38c-0.85211-1.8702-0.85211-3.1298,0-5,2.4012-5.2701,12.182-1.2922,12.182,4.9546,0,2.4199-0.27228,2.5454-5.5214,2.5454-4.9191,0-5.6457-0.27272-6.6605-2.5z" fill="#000"/>
  <path d="m470.78,761.6c0-0.97858,2.0532-8.0661,4.5628-15.75,8.432-25.818,9.3312-36.802,4.4803-54.732-3.0448-11.254-10.328-28.329-17.076-40.034-2.1817-3.784-3.9667-7.5156-3.9667-8.2922,0-1.7026,5.1016-1.8701,13.066-0.42897,11.371,2.0574,37.999,2.9946,52.14,1.8351l13.707-1.1239,5.7932,4.3624c8.3589,6.2943,15.639,14.27,18.663,20.445,2.2679,4.6316,2.6305,6.6561,2.6305,14.687,0,8.1562-1.9129,21.006-5.0336,33.811-0.46911,1.925-1.347,5.5537-1.951,8.0637-0.95925,3.987-1.7563,4.9608-6.3068,7.7059-6.1107,3.6863-17.238,8.8344-31.209,14.438-13.509,5.4191-45.967,16.792-47.924,16.792-0.86673,0-1.5759-0.80065-1.5759-1.7792z" fill="#84006d"/>
  <path d="m387.05,773.2c0-0.9879,1.3822-4.8756,3.0716-8.6394,7.3277-16.326,15.115-36,17.071-43.132,1.6674-6.0777,1.991-9.3191,1.5289-15.312-1.0397-13.483-9.0357-47.939-14.349-61.831-1.3817-3.6128-2.7458-7.8063-3.0312-9.3188-0.60234-3.1915-0.61688-3.1891,10.708-1.7061,10.564,1.3835,33.291,3.9332,47.825,5.3655,8.5304,0.84067,12.619,1.6573,13.279,2.6526,6.1584,9.2825,16.714,32.728,20.231,44.938,4.288,14.884,4.4652,16.251,3.6344,28.034-0.68913,9.7738-1.5718,13.828-5.9799,27.466-2.8443,8.8-5.3974,17.175-5.6735,18.611-0.52824,2.7466-0.66756,2.8149-14.316,7.0161-10.705,3.2951-28.625,5.949-43.5,6.4422-7.7,0.2553-17.712,0.6319-22.25,0.8369-7.4095,0.3347-8.25,0.1897-8.25-1.4234z" fill="#fd0100"/>
  <path d="m272.64,733.68c24.85,15.838,43.995,29.22,105.02,42.408,23.845-1.7075,31.73-2.8192,58.299-1.5357,57.034-19.5,116.63-20.766,159.09-93.094,0-21.433,22.793-29.265,0.4375-45.312-32.482,121.31-289.08,117.23-340.44,61.493-12.971,21.693,2.3038,17.707,17.592,36.042z" fill-opacity="0.33712122" fill="#000"/>
  <path d="m259.12,259.49a1.4375,1.375,0,1,1,-2.875,0,1.4375,1.375,0,1,1,2.875,0z" transform="translate(-2.2671682,110.70214)" fill="#FFF"/>
  <path d="m368.28,776.33c-32.163-5.7545-57.945-14.126-75.304-24.452-16.224-9.6507-41.124-30.586-44.775-37.646-2.4952-4.8252-0.10046-15.4,5.6204-24.819l4.7142-7.7617-4.128,0.89809c-2.2704,0.49395-13.353,3.8925-24.628,7.5524-18.064,5.8634-21.451,6.6619-28.5,6.7182-7.039,0.0563-8.7808-0.31886-14.5-3.1227-3.575-1.7526-9.8214-5.7056-13.881-8.7845-9.4463-7.1645-14.9-10.338-22.507-13.098-4.7756-1.7326-6.1186-2.6706-6.1415-4.2892-0.0162-1.1394-1.2536-3.3495-2.75-4.9114-1.4963-1.5618-2.7206-3.3251-2.7206-3.9184,0-1.5613,3.1821-2.1584,8.38-1.5725,2.9401,0.33139,5.9655-0.0606,8.5983-1.114,2.2342-0.89393,5.9655-1.6278,8.2919-1.6309,8.5255-0.0112,11.208-1.4942,18.612-10.288,18.956-22.514,37.562-35.079,59.43-40.132,3.7466-0.86586,8.7391-1.5743,11.094-1.5743h4.2824l-4.5124-13.25c-3.8043-11.171-4.5069-14.427-4.4775-20.75,0.0502-10.774,1.9838-20.861,6.5178-34,2.1826-6.325,4.6017-13.736,5.3758-16.468,5.2687-18.598-4.6578-43.073-22.572-55.654-10.123-7.1093-20.348-17.083-25.382-24.759-1.9701-3.0041-3.5701-6.1851-4.8516-9.3407-7.0638-9.5268-2.0762-25.97-9.5267-8.0293-2.182-4.9328-1.6199-14.322-2.6586-16.115-0.82578-1.4255-3.1956,1.8448-7.4607,5.1003-3.7481,0.002,6.1809-20.151,14.246-28.588,3.3618-3.5167,11.175-10.451,17.362-15.409,6.1875-4.9585,11.25-9.1927,11.25-9.4094,0-0.21672-2.6137-4.0919-3.975-6.7781-1.3612-2.6863-2.324-9.2479-2.6764-11.452-0.45826-2.8658-3.9779,0.31002-6.7271,0.44345-2.4277,0.11783-2.5134-3.3141-1.1216-6.6636,1.9369-4.6616,2.2887-8.5983,1.4633-8.2188-2.1752,1.0002-2.7157,1.9403-4.8836,4.2983-0.83339,0.90648-2.1987-0.86771-2.5565-2.2931-0.999-3.9804,6.2215-14.515,10.04-21.344,3.1838-5.6932,3.3637-6.3517,1.4565-5.331-1.1968,0.64053-15.816,5.9191-16.598,5.619-2.6926-1.0333,12.839-8.7804,17.448-11.481,2.5409-1.489-5.807,1.2194-5.4951-2.3425,0.16179-1.8481,15.095-5.5199,16.88-6.2957,1.7848-0.77579,0.65564-1.7577-0.005-1.9497-4.7231-1.3728-11.05-2.7946,2.159-4.1684,3.7915-0.39435,14.682,2.1071,25.841,7.0742,5.225,2.3258,14,5.7078,19.5,7.5155,13.34,4.3846,19.442,7.0415,25.509,10.888l5.7587,3.6513,12.908,0.5c7.6391,0.29591,11.036,0.29192,12.967-0.1248,1.7317-0.3737,4.4136,0.19822,5.3416-1.3144,1.5809-2.5768,1.1973-2.0359,1.1682-2.5878-0.0378-0.71705-2.1693,1.5952-4.7534,0.71703-2.5636-0.87117,2.4261-10.956,4.0244-13.311,1.3605-2.0047-2.7147,1.213-3.1336-1.4164-1.0508-6.5945,19.263-14.025,30.108-14.947,17.021-1.448,41.532,14.249,49.989,32.149,3.8461,8.1403,7.4109,20.34,9.1669,31.371,1.0854,6.8186,1.5958,8.1757,2.8829,7.6649,1.0246-0.0128,4.1016,0.37885,5.6084-1.1678,1.2012-1.233,5.2664-0.0193,3.0594,1.5671-4.1779,3.0031-5.8502,7.4947,0.11807,7.3817,2.259-0.0428,3.5887,0.56098,4.4834,2.071,1.5648,2.6412,0.56283,7.2443-2.1053,7.7807-5.4481,1.0954-3.7336,2.4184-2.0318,4.7056,2.3636,3.1768-0.93096,4.4346-5.0875,4.0379l-4.7354-2.8562,3.8214,10.515c1.2605,3.4682,4.7074,5.0066,8.2348,9.8856,3.0887,3.3364,9.9565,10.5,14.021,16.562,5.1352,7.6586,9.8397,15.554,9.4315,18.286-4.5631-1.8414-9.6247-6.5662-12.814-10.258-1.0964-1.0875-1.3003-0.64287-0.66539-0.0227,1.3919,1.3714,2.4774,2.8377,2.9729,3.3902,0.87827,0.97937,2.9274,2.9121,4.0566,4.3212-3.1524,1.4081-3.7378,2.4742-6.0811,3.711-3.1039,1.6382-5.4509,4.1691-9.9535,9.0074l-3.7642,4.0449,2.509,0.55863c4.4784,0.0395,7.9858,2.9826,7.9858,5.2136,0,1.0157-0.7225,1.8148-1.6408,1.8148-1.0315,0,0.083,1.517,3,4.085,2.5524,2.2467,4.6408,4.7811,4.6408,5.632,0,3.0012,5.0445,10.896,22.257,31.533,9.3789,11.245,23.711,32.444,28.94,42.806,6.1901,12.267,17.184,43.973,18.153,52.352l0.6541,5.6576,8.1232,4.759c13.193,7.7291,22.323,8.267,35.123,16.772,19.478,12.942,32,25.525,32,36.278,0,13.345-4.9479,34.193-11.215,45.355-8.4489,15.048-24.698,32.714-37.285,40.536-10.323,6.4154-48.471,20.917-76.963,31.62-32.222,12.104-41.729,13.932-75.037,14.424-20.544,0.30355-25.584,0.0712-35-1.6135zm57-4.5844c15.672-2.0197,28.373-5.4538,54-14.601,51.422-18.354,71.692-25.711,86.463-39.387,10.358-9.5901,23.788-30.818,28.398-44.89,1.6532-5.0456,5.6382-24.565,5.6382-27.618,0-0.90091-1.3437-6.399-3.5972-9.7736-6.5845-9.8604-25.208-22.071-46.088-31.917-8.0333-3.7882-20.882-7.1749-21.534-7.1756-0.1541-0.00017-0.2801,10.177-0.2801,22.616v22.616l5.5-0.57942c4.6075-0.48539,15.307-2.4946,28.25-5.3048,2.0388-0.44267,2.75-0.21092,2.75,0.89613,0,2.8192-23.788,7.9573-45,9.7197-14.972,1.2439-40.474,0.17241-59-2.4789-5.775-0.82648-15.225-1.9234-21-2.4376-5.775-0.51418-18.375-1.87-28-3.013-20.578-2.4436-44.099-3.7814-59.5-3.384-16.58,0.42778-35.627,2.3648-39,3.9663-17.403,8.2624-55.329,46.775-58.972,59.884-3.4171,12.296-4.2685,10.253,10.185,24.442,28.072,27.56,53.208,38.851,112.29,50.439,4.5015,0.88295,36.231-0.43796,48.5-2.0191zm-202-85.11c16.474-6.1243,19.664-7.0566,29.96-8.7545,8.6697-1.4298,9.0718-1.6158,12.417-5.7423,1.9013-2.3456,7.8818-8.6088,13.29-13.918,5.4083-5.3096,9.8332-9.9069,9.8332-10.216,0-0.30937-1.7636-3.2911-3.9192-6.6262-5.0694-7.8434-9.5258-18.784-11.05-27.127l-1.2097-6.6228-5.3631-0.63034c-12.463-1.4648-32.747,3.5213-47.458,11.666-10.34,5.7249-29.884,22.806-37.601,32.865-2.8882,3.7643-8.3452,6.8374-12.149,6.8418-2.3366,0.003-3.25,0.46209-3.25,1.6346,0,1.3124-0.69931,1.5174-3.5809,1.0497-4.4137-0.71624-14.612,1.1989-13.756,2.5834,0.37718,0.61028,3.292,0.74858,7.5117,0.3564,7.8085-0.72573,11.825-0.0504,11.825,1.988,0,0.96836-1.2926,1.3957-4.25,1.4052-2.3375,0.008-5.2754,0.28838-6.5287,0.62415-1.9921,0.5337-1.6148,0.91785,3,3.054,2.9033,1.344,8.8787,5.0517,13.279,8.2394,19.966,14.465,26.984,15.515,49,7.3302zm74.82-44.089c7.6221-5.1554,15.112-8.9799,20.68-10.56,6.1394-1.7417,29.08-3.5881,44.769-3.6032l10.269-0.01,5.7314-4.4994c3.1523-2.4747,6.0601-4.4997,6.462-4.5,0.4018-0.00035,3.167-1.5592,6.1449-3.4642,6.756-4.3218,22.376-11.761,30.208-14.387,26.574-8.9092,62.056-7.6266,78.9,2.8522,4.4441,2.7647,11.058,9.9277,13.387,14.498,2.46,4.828,4.3718,16.04,3.4883,20.457-0.6122,3.0615-0.5129,3.1883,2.2505,2.8728l2.891-0.32992v-24c0-25.224,0.8525-32.127-3.5459-47-9.0133-30.478-12.631-38.348-28.152-61.237-10.554-15.566-30.692-41.733-39.512-50.552-4.6245-4.6238-5.4852-6.479-3.3379-7.1947,0.6611-0.22038-0.9122-1.2704-3.4963-2.3333-3.6301-1.4932-4.6992-2.4442-4.7021-4.1826-0.01-4.7709-3.9997-2.3348-17.725,10.817-9.6461,9.243-16.145,14.549-22.208,18.13-9.7745,5.7735-25.212,12.803-28.116,12.803-4.2788,0-1.558-2.8894,5.5177-5.8595,6.9262-2.9074,14.851-7.1281,13.399-7.1367-0.3453-0.002-2.2434,0.67126-4.2179,1.4963-4.4678,1.8668-9.6542,1.9725-9.6542,0.19683,0-0.73471,3.12-2.308,7.1526-3.6068,16.308-5.2524,27.463-12.764,46.847-31.546,6.875-6.6616,13.088-13.933,16.25-16.006,3.1625-2.0731,5.75-4.3596,5.75-5.081,0-1.0201-1.028-3.0416-2.3068-4.5987-0.81763-1.5314-1.5206-3.457-1.0402-5.7234,0.16057-0.75734,1.2758-1.0138,2.3659-0.55379,4.9727,1.3381,0.83792-3.8058-0.86994-5.7224-1.5632-1.6138-4.5394-4.2748-7.7276-7.4832-11.662-11.736-17.408-29.361-14.171-30.34,0.6875,0.0195,2.6584,0.31702,3.75,1.4646,3.0725,3.2299,8.3463,3.7754,6.7261,2.1552-1.5757-1.5757-2.4429-4.9836-1.0551-5.7656,0.69852-0.39365,4.0037-1.5604,5.0378-2.979,2.6028-2.8323,1.0478-4.5812-1.9868-4.572-0.90253,0.003-3.5386-0.62768-5.051-0.30996-2.2295,0.46833-2.75,0.22192-2.75-1.3018,0-1.0337,2.7581-5.7874,3.2825-6.3119,0.6047-0.60468-4.104,0.84286-6.661,1.9251l-4.3644,1.8471-1.5498-7.3436c-0.85239-4.039-2.0683-10.044-2.7022-13.344-1.5695-8.1715-6.597-23.126-9.4132-28-5.8885-10.191-20.264-19.734-29.977-22.319-10.464-2.7854-25.091,0.83802-29.091,3.0383-8.9742,2.4581-7.6474,4.1895-5.5773,4.0092,2.2739-0.19813,3.3721,1.0788,2.8062,1.5929-1.313,1.193-5.9799,5.9734-7.8339,10.238-2.0764,4.7761,12.39-9.9508,7.095,2.2266-2.0524,2.1484-4.6362,12.635-4.6638,16.132-0.03,3.766-0.9922,5.8318-2.7169,5.8318-1.1771,0-1.4122-1.1869-1.143-5.7711l0.3388-5.7711-17,0.30341c-9.35,0.16688-19.854,0.75921-23.342,1.3163-17.185,2.7449-33.51,11.063-44.452,22.652-14.367,15.215-20.873,21.323-32.706,30.707-10.361,8.2536-20.33,16.657-32.299,33.812,1.2755-0.78078,4.7642-3.3539,6.5855-2.341,0.77882,0.2207,0.83763,1.2401-0.21991,2.7182-1.3081,1.8283-0.49018,10.379,0.36751,9.3344,2.1158-3.2527,3.9374-7.1059,7.2199-5.4689,1.6746,0.76429-1.0618,4.1157-0.52443,6.1753,4.7968,18.384,14.4,33.572,31.555,45.159,10.537,7.1176,19.315,15.054,19.315,17.537,0,1.2306,0.41491,2.6649,0.92201,3.1874,1.6462,1.6962,12.753,24.807,14.393,29.95,1.8191,5.703,5.1578,23.095,6.143,32,0.7912,7.151,5.2297,22.5,6.5064,22.5,0.4953,0,1.1862-0.9,1.5353-2,0.8797-2.7718,3.5-2.5472,3.5,0.3,0,1.265-0.4219,2.7275-0.9375,3.25-1.9786,2.0052-7.28,17.018-8.7584,24.802-2.7485,14.472-0.076,33.798,6.2909,45.487,3.8795,7.1227,6.8702,12.156,7.2248,12.159,0.1759,0.001,2.2009-1.2696,4.5-2.8247zm76.08-70.127c-14.163-8.3554-16.548-13.319-19.055-18.613-1.4066-2.9708-4.813-6.7837-6.6533-9.2827-4.2317-5.746-3.8538-7.496,1.5608-8.7467,2.2083-0.35312,5.9926-0.50332,8.0196,0.0563,3.6203,0.99962,3.6853,0.96753,3.6853-1.82,0-1.5607-0.56519-4.0622-0.42187-4.8721,0.26736-1.5107-3.4194-8.7049-3.8412-8.7581-1.3627-0.17201-2.9499-0.79869-4.8729-0.49964,0.31378-2.0953,0.92006-2.2472,2.5569-3.4115,1.5523-1.1042,2.8215-1.4766,6.1215-2.1557,5.2155-1.0733,7.0303-0.77064,12,1.4335,9.8636,4.3746,25.409,6.5319,38.255,3.3298,10.018-2.4971,18.607-10.708,22.011-13.902,6.7315-6.3177,11.233-21.006,10.866-31.217-0.0706-1.9654,0.16565-3.5267,1.1614-3.5267,1.8943,0,1.0903,10.41-0.70446,16.349-1.8159,6.0082-1.8978,13.337-12.589,22.809-6.9844,6.1874-15.231,12.132-30.65,13.201-14.489,1.0042-21.047-2.1972-27.953-4.1-4.076-1.123-9.8449-1.8336-11.578-1.5792-3.1822-0.5025-7.528,1.4264-5.3622,1.5633,2.8064,0.17729,2.5276,1.1872,3.4742,2.2751,1.3203,1.5175,2.95,3.3856,5.1907,3.4073,2.5728,0.0249,4.3785-0.56754,4.3785,1.0158,0,1.3123-2.5852,1.5486-3.8572,1.5486-1.5557,0-1.5152,1.02-1.6813,4.8628-0.24249,5.6088,0.24211,7.0076-2.6838,7.4701-2.0179,0.31902-6.5098-0.30269-8.0154-0.58735-1.5058-0.2847-3.4517-0.24367-4.3243,0.0912-1.2796,0.49103-0.9102,1.2466,1.9093,3.9058,1.9227,1.8133,4.5943,5.781,5.937,8.8169,1.4539,3.2876,4.0133,6.8199,6.3284,8.7342l8.0368,6.7253-1.6047-6.0818c0.348-3.9562,1.2593-6.3579,1.2964-2.555,0.036,3.6337,3.4489,10.127,6.8108,12.956,4.293,3.6124,21.953,11.426,34.737,14.326,11.498,2.6083,26.088,2.5502,34.047,0.71569,5.6855-1.3104,16.787-8.6867,22.166-14.728,2.3021-2.5856,5.5295-7.6261,7.1721-11.201,2.8548-6.2136,3.4162-8.3166,4.9516-17.527,1.4485-8.6893-1.5904-19.964-0.53776-19.964,1.7867,0,3.3963,17.029,1.3012,29.252-1.4446,8.4281-2.6682,9.1623-4.3721,12.917-3.0988,6.8286-9.6848,14.133-16.42,17.532-8.4702,7.6961-27.236,9.1216-42.623,7.0128s-32.566-10.33-44.174-17.178zm27.141-11.003c-2.2141-2.311-3.2237-2.748-4.6213-2-2.603,1.393-7.9198,1.1925-7.9198-0.29878,0-1.1018,8.5213-5.7442,10.544-5.7442,1.192,0,8.4263,8.3552,8.4421,9.75,0.025,2.2568-3.5561,1.3081-6.4448-1.7071zm-30.541-27.043c0-1.2899,0.6667-2,1.8775-2,1.0327,0,2.4378-0.675,3.1225-1.5,1.5073-1.8162,5.006-1.9917,4.9847-0.25-0.022,1.8269-1.1963,3.2988-3.669,4.6003-3.4757,1.8295-6.3157,1.4471-6.3157-0.8503zm7.8726-198.33c-0.336-4.186-0.76842-7.7994-1.5918-7.7994-1.4018,0-2.6193-2.191-2.4701-5.0568,0.0921-1.7694,2.8028-7.7674-2.1136-2.0008-2.8735,3.3704-8.2067-0.24003-4.4522-9.4314-0.5191-5.0664-5.6293-0.65281-3.0263-5.8855,0.8423-1.2026,3.2993-3.9515,3.2993-5.2445,0-1.7081-6.7794-2.7037-6.0282-3.7619,1.3156-1.8532,8.0857,0.92569,7.9999,3.7198-3.1975,5.9596-1.493,8.1529,0.89645,6.5451,1.4796-0.99554,1.8682,1.0387,0.009,3.4966-1.5957,2.1097-2.5127,7.857-1.1535,7.857,0.4648,0,2.013-1.2536,3.0086-2.3536,0.9955-1.1,2.6824-2,3.7488-2,1.7444,0,1.8718,0.48779,1.2699,4.8637-0.69802,4.4851-2.8832,7.7466,1.4062,5.4064,1.5847-0.86458,3.3993,1.5409,2.0751,5.4773-0.65937,5.6495-0.40502,10.549,2.5078,14.575,2.2224,3.0717,1.9736,3.5305,5.974,7.2939,4.8016,4.5672-1.5968,0.95428-3.3854-0.86483-4.0627-2.8682-7.921-10.554-7.9737-14.836zm134.79,299.58c-2.1922-23.476-24.398-36.87-57.971-34.967-13.123,0.74401-22.069,2.8238-35.967,8.361-11.283,4.4955-15.632,6.6966-30.044,15.205l-7.8225,4.6182,24.822,2.7237c21.295,2.3366,57.565,6.9709,76.323,9.7517,3.025,0.44846,11.303,0.86971,18.395,0.93612l12.895,0.12074zm-240.66-37.143c0-6.229,2.9969-19.091,5.9958-25.733l2.766-6.1256-3.8229-11.433c-3.5458-10.604-5.6987-19.875-9.014-38.816l-1.3127-7.5-0.68199,5c-0.3751,2.75-2.7069,10.175-5.1819,16.5-7.1337,18.231-9.7264,32.919-7.7787,44.068,0.618,3.5377,2.7149,11.27,4.6597,17.182l3.5361,10.75h10.835zm-24.25-259.24c3.4375-3.5959,6.25-6.7797,6.25-7.0752s-1.8063-0.82611-4.0141-1.1791c-2.2077-0.35303-5.0139-1.6417-6.236-2.8638-1.2221-1.222-3.0777-2.0769-4.1236-1.8997-2.3792,0.40307-3.5912-1.4375-3.611-5.4836-0.0113-2.3144-0.55317-3.274-2.0733-3.6716-1.777-0.46468-2.0159-1.1963-1.75-5.3576,0.23298-3.6456,0.73423-4.9004,2.058-5.1518,1.3779-0.26166,1.7328-0.56369,1.125,1.941-1.1339,4.6727,0.004,7.4543,1.825,2.4483,2.5643-2.5643,3.2228-2.0434,2.6935,2.0027-0.73672,5.6323,1.5436,11.074,2.3722,5,0.44209-3.2409,2.308-2.6211,2.5407,2.5683,0.16264,3.6269,2.7895,5.4428,8.5941,6.6535,4.8682,1.0154,7.5995,0.72184,7.5995-0.81692,0-1.1423,12.403-8.8286,18.839-11.675,2.9815-1.3186,8.9745-3.4233,13.318-4.6772l10.147-2.2798-5.2767-2.5775c-2.9022-1.4176-11.519-4.6819-19.149-7.2539-7.6299-2.572-16.405-6.0643-19.5-7.7607-7.9074-4.334-9.8577-4.2254-13.13-5.3899-1.2724-0.45283-4.7413-2.4754-7.5588-2.9584,2.2614,1.4233,1.6256,4.5902,0.33972,4.753-1.8876,0.4398-27.505,4.1469-5.4494,4.2112-11.971,3.8422-16.307,5.7803-17.519,7.301,6.017-2.884,11.926-2.9765,14.609-2.024,1.4671,0.52096-2.1356,2.0825-2.5342,2.6683-3.6998,5.3973-12.661,14.368-13.539,18.18-0.3798,1.65-2.4157,6.0213-2.6908,7.1213,3.0865-2.2425,5.078-4.5219,7.5024-2.8021,0.95365,9.2491-2.796,11.773-1.3515,12.904,1.1284,0.87015,3.1668-1.4875,4.7468-2.9544,2.1426-1.9893,4.4337-0.25343,3.7833,2.6352-0.8175,3.6309,2.2334,14.517,5.3743,17.526l2.2802,1.0853,3.6299-3.3048c1.9964-1.8176,6.4424-6.2469,9.8799-9.8428z" fill="#000"/>
 </g>
</svg>
